<svg xmlns="http://www.w3.org/2000/svg" viewBox="0 0 100 60" fill="none">
  <path d="M28.5 36.8c0 1.1.1 2 .4 2.6.2.6.5 1.2 1 1.9.1.2.2.4.2.5 0 .2-.1.4-.4.6l-1.3.9c-.2.1-.4.2-.5.2-.2 0-.4-.1-.6-.3-.3-.3-.5-.7-.7-1-.2-.4-.4-.8-.6-1.4-1.6 1.9-3.6 2.8-6 2.8-1.7 0-3.1-.5-4.1-1.5-1-.9-1.5-2.2-1.5-3.8 0-1.7.6-3.1 1.8-4.1 1.2-1 2.8-1.5 4.9-1.5.7 0 1.4 0 2.1.1.8.1 1.5.2 2.4.4v-1.5c0-1.5-.3-2.5-1-3.2-.6-.6-1.7-.9-3.2-.9-.7 0-1.4.1-2.1.2-.8.2-1.5.4-2.2.6-.3.1-.6.2-.7.3-.2 0-.3.1-.4.1-.3 0-.5-.2-.5-.7v-1.1c0-.3 0-.6.1-.7.1-.1.3-.3.6-.4.7-.4 1.6-.7 2.5-.9 1-.3 2-.4 3.1-.4 2.4 0 4.1.5 5.2 1.6 1.1 1.1 1.6 2.7 1.6 4.9v6.4h-.1zM21.5 40c.7 0 1.4-.1 2.1-.4.8-.3 1.4-.8 2-1.5.3-.4.6-.9.7-1.4.1-.5.2-1.2.2-2v-.9c-.6-.1-1.3-.3-1.9-.3-.7-.1-1.3-.1-1.9-.1-1.3 0-2.3.3-3 .8-.7.5-1 1.3-1 2.4 0 1 .3 1.7.8 2.2.5.5 1.2.7 2 .7v.1zm16.7 2.3c-.4 0-.7-.1-.9-.2-.2-.2-.4-.5-.5-1l-5.6-18.3c-.1-.3-.2-.6-.2-.8 0-.3.2-.5.5-.5h2c.4 0 .7.1.9.2.2.2.3.5.5 1l4 15.7 3.7-15.7c.1-.5.3-.8.5-1 .2-.2.6-.2.9-.2h1.7c.4 0 .7.1.9.2.2.2.4.5.5 1l3.7 15.9 4.1-15.9c.1-.5.3-.8.5-1 .2-.2.6-.2.9-.2h1.9c.3 0 .5.2.5.5 0 .1 0 .2-.1.3 0 .1-.1.3-.2.5l-5.7 18.3c-.1.5-.3.8-.5 1-.2.2-.6.2-.9.2h-1.8c-.4 0-.7-.1-.9-.2-.2-.2-.4-.5-.5-1l-3.7-15.3-3.6 15.3c-.1.5-.3.8-.5 1-.2.2-.6.2-.9.2h-1.8l.1-.1zm26.7.6c-1.1 0-2.1-.1-3.2-.4-1-.3-1.8-.6-2.4-1-.3-.2-.6-.5-.6-.7-.1-.2-.1-.4-.1-.6v-1.1c0-.4.2-.7.5-.7.1 0 .3 0 .4.1.1.1.3.1.5.2.7.3 1.5.6 2.3.8.9.2 1.7.3 2.6.3 1.4 0 2.4-.2 3.2-.7.7-.5 1.1-1.2 1.1-2.1 0-.6-.2-1.1-.6-1.5-.4-.4-1.1-.8-2.2-1.1l-3.1-.9c-1.6-.5-2.8-1.2-3.5-2.2-.7-.9-1.1-2-1.1-3.1 0-.9.2-1.7.6-2.4.4-.7.9-1.3 1.6-1.8.7-.5 1.4-.9 2.3-1.1.9-.3 1.8-.4 2.8-.4.5 0 1 0 1.6.1.5.1 1 .2 1.5.3.5.1.9.3 1.4.4.4.2.8.3 1.1.5.3.2.5.4.7.6.1.2.2.5.2.8v1c0 .4-.2.7-.5.7-.2 0-.5-.1-.8-.2-1.2-.6-2.6-.8-4.1-.8-1.2 0-2.2.2-2.9.6-.7.4-1 1.1-1 2 0 .6.2 1.2.6 1.6.4.4 1.2.9 2.4 1.2l3 .9c1.6.5 2.7 1.1 3.4 2 .7.9 1 1.9 1 3 0 .9-.2 1.8-.6 2.5-.4.8-.9 1.4-1.6 2-.7.5-1.5 1-2.4 1.3-.9.3-2 .5-3.2.5z" fill="#252F3E"/>
  <path d="M73.8 47.3c-8.1 6-19.9 9.2-30 9.2-14.2 0-27-5.3-36.7-14-.8-.7-.1-1.7.8-1.1 10.4 6.1 23.4 9.8 36.8 9.8 9 0 18.9-1.9 28.1-5.8 1.4-.6 2.5.9 1 1.9zm2.9-3.3c-1.1-1.4-7-0.7-9.7-0.3-.8.1-.9-.6-.2-1.1 4.8-3.4 12.6-2.4 13.5-1.3.9 1.1-.2 9-4.7 12.7-.7.6-1.4.3-1.1-.5 1.1-2.6 3.3-8.1 2.2-9.5z" fill="#FF9900"/>
</svg>
